<!DOCTYPE svg PUBLIC "-//W3C//DTD SVG 20010904//EN" "http://www.w3.org/TR/2001/REC-SVG-20010904/DTD/svg10.dtd">
<svg version="1.0" xmlns="http://www.w3.org/2000/svg" width="744px" height="489px" viewBox="0 0 7440 4890" preserveAspectRatio="xMidYMid meet">
<g id="layer101" fill="#030303" stroke="none">
 <path d="M180 4830 c0 -5 -8 -10 -18 -10 -22 0 -98 -78 -94 -97 2 -7 -4 -16 -12 -19 -9 -3 -14 -10 -11 -14 3 -5 0 -14 -7 -22 -10 -10 -13 -461 -13 -2226 0 -1216 3 -2212 8 -2212 8 0 30 -47 31 -65 1 -15 74 -87 103 -102 14 -7 32 -13 39 -13 8 0 14 -4 14 -10 0 -7 1169 -10 3488 -10 l3488 0 51 25 c55 28 122 93 115 113 -2 6 3 15 12 18 9 3 14 10 11 14 -3 5 0 14 7 22 10 10 13 461 13 2226 0 1216 -3 2212 -7 2212 -5 0 -8 9 -8 19 0 10 -7 22 -16 25 -9 3 -14 12 -11 20 6 15 -25 50 -36 41 -4 -3 -5 -2 -2 2 8 11 -37 53 -57 53 -10 0 -18 5 -18 10 0 7 -1185 10 -3535 10 -2350 0 -3535 -3 -3535 -10z m371 -287 c30 -18 69 -85 69 -119 0 -38 -37 -80 -93 -107 -64 -30 -75 -42 -49 -56 14 -7 29 -7 52 2 29 11 33 10 51 -12 26 -32 24 -48 -8 -64 -100 -50 -194 -12 -210 87 -7 47 18 81 89 117 49 25 59 34 56 52 -4 30 -48 35 -73 7 -24 -26 -36 -25 -65 5 -28 30 -22 47 30 83 40 27 109 29 151 5z m1027 11 c21 -6 22 -12 22 -90 0 -88 8 -109 91 -226 10 -15 19 -36 19 -48 0 -17 -6 -20 -45 -20 -41 0 -47 3 -75 42 -16 22 -30 47 -30 55 0 25 -15 12 -45 -40 -29 -50 -32 -52 -76 -55 -62 -4 -66 12 -23 76 19 28 34 54 34 57 0 3 10 19 21 35 18 24 21 41 20 108 -2 103 16 125 87 106z m1127 -27 c32 -28 38 -40 42 -83 4 -43 2 -54 -20 -80 -15 -17 -49 -42 -77 -55 -54 -26 -58 -30 -35 -49 11 -9 22 -9 50 2 33 11 38 11 51 -7 8 -10 14 -29 14 -42 0 -18 -9 -25 -52 -38 -97 -28 -178 21 -178 109 0 50 29 82 103 114 47 21 57 38 35 60 -18 18 -42 15 -68 -8 -35 -30 -61 -24 -75 18 -5 18 -1 30 17 49 30 33 53 42 109 42 38 1 52 -5 84 -32z m982 25 c9 -5 13 -50 14 -150 l1 -142 39 0 40 0 -3 -42 -3 -43 -105 -3 c-142 -4 -152 -1 -148 46 3 35 5 37 41 40 l37 3 0 138 c0 93 4 141 12 149 13 13 57 16 75 4z m1096 -1 c5 0 7 -20 5 -43 l-3 -43 -57 -3 c-57 -3 -58 -4 -58 -32 0 -28 1 -29 57 -32 62 -3 71 -13 59 -64 -6 -22 -12 -24 -61 -24 -52 0 -55 -1 -55 -26 0 -22 4 -25 28 -24 15 1 42 2 60 1 33 -1 33 -2 30 -43 l-3 -43 -99 -3 c-55 -1 -103 1 -108 6 -7 7 -13 252 -8 359 0 6 8 13 18 15 15 4 172 3 195 -1z m898 -16 c4 -11 10 -51 14 -88 4 -37 10 -65 13 -62 6 6 39 93 53 143 8 24 16 32 33 32 21 0 29 -12 59 -86 l34 -87 12 79 c6 43 16 81 22 85 6 3 27 6 47 5 l37 -1 -1 -55 c-2 -88 -41 -322 -56 -331 -20 -13 -54 -11 -67 4 -13 16 -61 140 -70 180 -5 25 -11 16 -47 -74 -22 -56 -47 -107 -56 -112 -8 -6 -26 -7 -40 -4 -26 7 -26 8 -40 99 0 4 -9 52 -19 105 -11 54 -21 119 -24 144 l-4 46 46 -1 c36 -1 48 -5 54 -21z m1310 10 c39 -21 69 -71 69 -117 0 -47 -33 -87 -99 -118 -55 -25 -59 -31 -36 -50 13 -11 20 -11 39 -1 33 18 59 10 70 -22 13 -35 -3 -52 -65 -68 -40 -11 -50 -10 -84 7 -74 37 -99 106 -59 162 11 15 46 39 77 54 57 28 68 43 45 66 -18 18 -46 15 -65 -8 -24 -27 -49 -25 -70 6 -20 31 -12 48 37 82 39 26 97 29 141 7z m-4692 -798 c-8 -14 -47 -81 -88 -149 -41 -68 -103 -172 -139 -233 -36 -60 -80 -134 -98 -162 -19 -29 -34 -55 -34 -59 0 -3 -8 -18 -19 -32 -10 -15 -29 -45 -42 -67 -36 -62 -178 -299 -427 -715 l-224 -374 18 -31 c10 -16 38 -61 63 -99 25 -37 51 -76 56 -84 6 -9 28 -43 51 -76 23 -34 43 -65 45 -71 2 -5 36 -57 74 -114 39 -57 75 -111 80 -119 6 -9 28 -44 50 -78 22 -34 69 -108 105 -164 35 -57 69 -108 75 -114 6 -6 14 -18 18 -26 3 -8 50 -80 102 -160 268 -404 335 -510 335 -524 0 -14 -29 -16 -248 -16 -183 0 -252 3 -264 13 -14 11 -118 172 -118 183 0 3 -20 35 -44 72 -24 37 -71 112 -104 167 -33 55 -108 179 -167 275 -59 96 -116 190 -126 208 -11 18 -54 90 -98 160 -43 70 -109 179 -147 242 -38 63 -72 117 -76 118 -5 2 -8 8 -8 12 0 5 -15 33 -32 63 l-33 54 3 -764 c2 -532 -1 -769 -8 -783 -11 -20 -19 -20 -238 -18 l-227 3 -5 55 c-3 30 -3 818 0 1750 l5 1695 224 3 c159 2 228 -1 238 -9 12 -10 13 -142 11 -870 -2 -471 -3 -857 -2 -856 1 1 18 34 39 72 21 39 50 93 65 120 15 28 46 84 68 125 21 41 50 93 62 115 12 22 41 74 63 115 22 41 43 80 47 85 4 6 21 35 37 65 17 30 57 105 90 165 81 147 129 237 172 317 20 37 79 145 133 240 53 95 111 200 129 233 17 33 36 66 42 72 7 9 75 13 256 15 269 3 284 1 260 -45z m4131 22 c0 -10 -13 -37 -29 -61 -15 -24 -39 -62 -52 -85 -13 -23 -75 -125 -136 -228 -62 -102 -113 -188 -113 -191 0 -3 -9 -17 -19 -32 -11 -15 -88 -143 -173 -285 -84 -142 -166 -279 -182 -305 -27 -44 -108 -180 -146 -247 -9 -16 -65 -109 -123 -206 l-107 -177 83 -125 c45 -69 122 -188 172 -264 49 -76 171 -262 270 -413 99 -151 196 -300 215 -330 19 -30 38 -56 42 -58 5 -2 8 -8 8 -13 0 -5 63 -103 140 -218 77 -116 140 -219 140 -230 0 -21 -4 -21 -242 -20 -134 0 -251 3 -260 7 -9 4 -61 79 -114 167 -53 88 -104 172 -113 187 -9 14 -37 61 -63 105 -26 43 -69 113 -95 155 -27 43 -80 131 -119 195 -121 199 -178 293 -196 321 -10 15 -22 36 -27 47 -5 11 -21 37 -35 58 -14 21 -26 42 -26 47 0 4 -4 10 -8 12 -4 2 -43 61 -85 132 l-77 129 0 -775 c0 -698 -2 -776 -16 -782 -23 -9 -437 -7 -452 2 -10 7 -12 364 -10 1753 l3 1744 235 0 235 0 3 -865 3 -865 45 85 c25 47 61 112 79 145 19 33 42 76 51 95 10 19 21 37 24 40 3 3 20 32 37 65 27 54 82 156 186 345 19 36 74 134 121 219 47 85 86 158 86 162 0 4 3 9 8 11 4 2 17 23 30 48 29 55 129 244 152 285 9 17 34 62 56 100 21 39 46 84 54 100 l15 30 245 5 c135 3 253 3 263 1 9 -2 17 -12 17 -22z m-3550 -822 l5 -838 25 45 c14 24 57 98 97 163 39 65 80 134 91 153 11 19 50 85 87 145 56 92 125 206 165 275 5 8 55 92 113 185 57 94 111 182 118 197 18 34 119 202 174 288 23 36 45 72 48 80 4 8 16 29 27 45 11 17 27 44 36 60 9 17 22 33 28 37 6 4 118 8 249 8 211 0 237 -2 237 -16 0 -9 -46 -89 -102 -178 -56 -88 -118 -187 -137 -218 -114 -182 -169 -268 -198 -310 -18 -26 -33 -50 -33 -52 0 -5 -126 -207 -250 -401 -46 -71 -127 -200 -180 -285 -53 -85 -108 -173 -122 -195 l-26 -41 117 -11 c417 -41 659 -231 752 -588 21 -79 23 -114 24 -290 0 -154 -4 -218 -17 -278 -43 -192 -141 -353 -268 -440 -25 -17 -47 -33 -50 -36 -6 -7 -120 -64 -135 -67 -5 -1 -43 -14 -84 -28 -41 -14 -138 -36 -215 -47 -126 -19 -188 -22 -596 -23 l-455 -1 -3 1740 c-1 957 0 1746 3 1753 3 10 56 12 237 10 l233 -3 5 -838z m4185 -914 c0 -1639 -1 -1728 -18 -1731 -11 -2 -23 8 -35 27 -9 17 -20 31 -24 31 -5 0 -8 4 -8 10 0 5 -14 29 -30 52 -76 109 -90 130 -90 138 0 4 -4 10 -8 12 -4 1 -59 80 -122 173 -63 94 -118 175 -123 180 -4 6 -29 42 -55 82 -91 139 -175 258 -183 261 -5 2 -9 8 -9 13 0 8 -50 84 -335 504 -33 50 -77 113 -98 140 -39 53 -42 82 -10 118 9 9 21 25 27 35 23 39 55 88 65 99 6 7 11 15 11 17 0 5 116 183 161 248 10 15 19 29 19 32 0 4 80 127 120 186 34 48 271 418 277 430 7 14 95 150 310 477 51 79 93 146 93 150 0 14 42 51 54 47 8 -3 11 -445 11 -1731z"/>
 <path d="M2880 1200 l0 -595 127 3 c180 3 348 18 418 37 91 24 182 81 222 138 66 97 99 287 88 502 -17 316 -104 433 -356 481 -48 9 -173 19 -291 22 l-208 7 0 -595z"/>
 </g>

</svg>