<?xml version="1.0" standalone="no"?>
<!DOCTYPE svg PUBLIC "-//W3C//DTD SVG 20010904//EN"
 "http://www.w3.org/TR/2001/REC-SVG-20010904/DTD/svg10.dtd">
<svg version="1.0" xmlns="http://www.w3.org/2000/svg"
 width="200.000000pt" height="200.000000pt" viewBox="0 0 200.000000 200.000000"
 preserveAspectRatio="xMidYMid meet">
<metadata>
Created by potrace 1.14, written by Peter Selinger 2001-2017
</metadata>
<g transform="translate(0.000000,200.000000) scale(0.100000,-0.100000)"
fill="#000000" stroke="none">
<path d="M37 1952 c-2 -4 -3 -443 -2 -977 l0 -970 983 -3 982 -2 0 979 0 980
-980 0 c-539 0 -981 -3 -983 -7z m1891 -497 c0 -195 -3 -355 -7 -355 -3 0 -50
44 -103 98 l-96 97 2 162 1 163 95 95 c52 52 98 95 101 95 4 0 7 -160 7 -355z
m-103 -392 l42 -42 -70 -70 c-38 -39 -70 -71 -71 -71 -2 0 -3 63 -3 140 l0
141 30 -28 c16 -15 48 -47 72 -70z m104 -553 c2 -416 1 -440 -16 -441 -84 -4
-863 -3 -863 1 0 3 46 51 103 107 l102 101 227 0 c125 0 230 2 235 5 4 3 7
108 6 234 l-1 228 101 103 c56 56 102 102 103 102 1 0 2 -198 3 -440z m-871
-298 c-99 -102 -142 -142 -153 -143 -40 -3 -694 -3 -708 0 -15 3 3 26 83 106
l102 102 370 0 370 0 -64 -65z"/>
</g>
</svg>
